<svg width="20" height="20" viewBox="0 0 20 20" fill="none" xmlns="http://www.w3.org/2000/svg">
<path d="M17.2891 4.65405H16.5941V18.0361C16.5941 18.2031 16.4587 18.3387 16.2915 18.3387H6.39648V19.0337C6.39648 19.2009 6.53188 19.3363 6.69908 19.3363H17.2893C17.4565 19.3363 17.5919 19.2009 17.5919 19.0337V4.95645C17.5919 4.91671 17.584 4.87737 17.5688 4.84067C17.5535 4.80396 17.5312 4.77062 17.5031 4.74254C17.475 4.71446 17.4416 4.69219 17.4049 4.67701C17.3682 4.66183 17.3288 4.65403 17.2891 4.65405Z" fill="#0043C6"/>
<path d="M15.5977 17.0386V2.96141C15.5977 2.79421 15.4623 2.65881 15.2951 2.65881H14.6001V16.041C14.6001 16.2082 14.4647 16.3436 14.2975 16.3436H4.40234V17.0386C4.40234 17.2058 4.53774 17.3412 4.70494 17.3412H15.2951C15.4623 17.3412 15.5977 17.2058 15.5977 17.0386Z" fill="#0043C6"/>
<path d="M13.6034 15.0436V0.966418C13.6034 0.799218 13.468 0.663818 13.3008 0.663818H2.7108C2.5436 0.663818 2.4082 0.799218 2.4082 0.966418V15.0436C2.4082 15.2108 2.5436 15.3462 2.7108 15.3462H13.3008C13.468 15.3462 13.6034 15.2108 13.6034 15.0436Z" fill="#0043C6"/>
</svg>
