<svg width="30" height="21" viewBox="0 0 30 21" fill="none" xmlns="http://www.w3.org/2000/svg">
<path d="M19.1223 4.91665C18.2878 4.59729 17.4245 4.36503 16.5324 4.21987C15.6403 4.0747 14.6906 4.0747 13.6835 4.21987C12.2734 4.39406 10.9784 4.81504 9.79856 5.48279C8.6187 6.15054 7.59712 6.9925 6.73381 8.00864C5.8705 9.02479 5.20863 10.1861 4.7482 11.4926C4.28777 12.799 4.04317 14.1636 4.01439 15.5862V16.2394C4.01439 16.5298 3.91367 16.762 3.71223 16.9362C3.51079 17.1104 3.26619 17.212 2.97842 17.2411H0.992806C0.705036 17.2411 0.47482 17.1395 0.302158 16.9362C0.129496 16.733 0.028777 16.5007 0 16.2394V15.6297C0 13.7136 0.330935 11.87 0.992806 10.099C1.65468 8.328 2.56115 6.76023 3.71223 5.39569C4.86331 4.03115 6.2446 2.88436 7.85612 1.95531C9.46763 1.02626 11.2086 0.445605 13.0791 0.213342C14.7482 -0.0189199 16.3597 0.0246293 17.9137 0.34399C19.4676 0.66335 20.9065 1.20046 22.2302 1.95531C22.3741 2.07144 22.4604 2.2166 22.4892 2.3908C22.518 2.565 22.446 2.71016 22.2734 2.82629C21.8705 3.14565 21.3957 3.50856 20.8489 3.91502C20.3022 4.32148 19.8849 4.64084 19.5971 4.8731C19.4245 4.98923 19.2662 5.00375 19.1223 4.91665ZM28.5324 8.79253C29.5108 10.8248 30 12.9732 30 15.2378V16.2394C30 16.5298 29.8993 16.762 29.6978 16.9362C29.4964 17.1104 29.2518 17.212 28.964 17.2411H27.0216C26.7338 17.2411 26.4892 17.1395 26.2878 16.9362C26.0863 16.733 25.9856 16.5007 25.9856 16.2394V15.2378C25.9856 14.1636 25.8273 13.0749 25.5108 11.9716C25.4532 11.7684 25.482 11.6087 25.5971 11.4926L27.7122 8.70543C27.8273 8.56026 27.9856 8.48768 28.187 8.48768C28.3885 8.48768 28.5036 8.5893 28.5324 8.79253ZM24.777 6.00538C25.0072 5.83118 25.2374 5.7586 25.4676 5.78763C25.6978 5.81667 25.8993 5.90377 26.0719 6.04893C26.2446 6.19409 26.3453 6.39732 26.3741 6.65862C26.4029 6.91991 26.3309 7.16669 26.1583 7.39895L17.3957 19.0701L17.2662 19.2008L17.1367 19.375C16.5324 19.9556 15.813 20.246 14.9784 20.246C14.1439 20.246 13.4388 19.9556 12.8633 19.375C12.2878 18.7943 12 18.083 12 17.2411C12 16.3991 12.2878 15.6878 12.8633 15.1072C12.9209 15.0491 12.9784 15.0055 13.036 14.9765C13.0935 14.9475 13.1511 14.9039 13.2086 14.8459L24.777 6.00538Z" fill="#FD0E0E"/>
</svg>
